<svg xmlns="http://www.w3.org/2000/svg" viewBox="0 0 362 362"><defs><style>.cls-2{fill:#e6e6e6}.cls-5{fill:#3f3d56}.cls-6{fill:#6c63ff}</style></defs><path style="fill:#1c87c9" d="M0-5h367v367H0z" id="Layer_2" data-name="Layer 2"/><g id="Layer_1" data-name="Layer 1"><path class="cls-2" d="m212.78 272.59-5.08-2.15-3.49-25.44h-46.45L154 270.34l-4.55 2.28a1.08 1.08 0 0 0 .48 2h62.45a1.08 1.08 0 0 0 .42-2.07Z"/><path d="M282 247.39H80.48A17.56 17.56 0 0 1 63 229.83v-18.09h236.54v18.09A17.57 17.57 0 0 1 282 247.39Z" style="fill:#ccc"/><path class="cls-2" d="M299.81 226.59H62.7v-125A17.57 17.57 0 0 1 80.25 84h202a17.57 17.57 0 0 1 17.55 17.55Z"/><path d="M280.91 216.6H81.6a8.92 8.92 0 0 1-8.91-8.91V102.9A8.92 8.92 0 0 1 81.6 94h199.31a8.92 8.92 0 0 1 8.91 8.91v104.78a8.92 8.92 0 0 1-8.91 8.91Z" style="fill:#fff"/><path class="cls-5" d="M193.3 147.48a.07.07 0 0 0 0 .05 34.11 34.11 0 0 0 68.09 0 .83.83 0 0 0-.21-.58.79.79 0 0 0-.57-.25h-66.53a.78.78 0 0 0-.78.78Z"/><path class="cls-2" d="M250.09 120.09a1 1 0 0 1-.3.71L226.63 144a1 1 0 0 1-.71.29h-31.84a1 1 0 0 1-1-1.07 34.34 34.34 0 0 1 56.66-23.86 1.06 1.06 0 0 1 .35.72Z"/><path class="cls-6" d="M215.48 193.14a6.13 6.13 0 1 1-6.06-6.19 6.12 6.12 0 0 1 6.06 6.19Z"/><path class="cls-5" d="M233 193.32a6.13 6.13 0 1 1-6.07-6.19 6.13 6.13 0 0 1 6.07 6.19Z"/><path class="cls-2" d="M250.49 193.5a6.13 6.13 0 1 1-6.06-6.19 6.12 6.12 0 0 1 6.06 6.19ZM161.79 127.3l-56.22-.58a4.17 4.17 0 1 0-.08 8.34l56.21.58a4.17 4.17 0 0 0 .09-8.34ZM161.55 150.08l-56.21-.58a4.17 4.17 0 0 0-1.8 7.95 3.92 3.92 0 0 0 1.71.39l56.22.58a4.17 4.17 0 0 0 .1-8.34ZM161.32 172.86l-56.22-.57a4.17 4.17 0 1 0-.08 8.34l56.22.57a4.17 4.17 0 0 0 .1-8.34Z"/><path class="cls-6" d="m145.79 127.13-40.22-.41a4.17 4.17 0 1 0-.08 8.34l39.38.4a4.75 4.75 0 0 0 .92-8.33ZM127 149.73l-21.64-.23a4.17 4.17 0 0 0-1.8 7.95l19.88.21a4.75 4.75 0 0 0 4.8-4.7 4.59 4.59 0 0 0-1.24-3.23ZM157.12 172.82l-52-.53a4.17 4.17 0 1 0-.08 8.34l52.35.53a4.73 4.73 0 0 0 1.74-6.47 4.85 4.85 0 0 0-2-1.87Z"/></g></svg>