<svg id="Layer_1" data-name="Layer 1" xmlns="http://www.w3.org/2000/svg" viewBox="0 0 1217.04 1217.04"><defs><style>.cls-2{fill:#fff}.cls-3{fill:#ecf0f1}.cls-4{fill:red}.cls-5{fill:#f7b239}.cls-7{fill:#2ba5f7}.cls-8{fill:#ffc0a5}</style></defs><g id="layer1"><path d="M.26-.5a.67.67 0 0 0-.54.31A1.33 1.33 0 0 0-.5.56v1215.92c0 .59.34 1.06.76 1.06h1216.52a.66.66 0 0 0 .54-.31 1.33 1.33 0 0 0 .22-.75V.56c0-.58-.34-1.06-.76-1.06Z" style="fill:#00b7d9"/><path class="cls-2" d="M249 221.64v648.29h505.24V221.64Z"/><path class="cls-2" d="m257.44 244.44-3.64 568.87h495.83l3.63-565.7Z"/><path class="cls-2" d="m607 262-323.31-2.1a12.21 12.21 0 1 0-.16 24.42l323.34 2.07A12.21 12.21 0 1 0 607 262ZM648.83 264a10.44 10.44 0 1 1-10.5 10.37 10.43 10.43 0 0 1 10.5-10.37ZM687.86 264.26a10.44 10.44 0 1 1-10.5 10.37 10.43 10.43 0 0 1 10.5-10.37ZM726.89 264.51a10.44 10.44 0 1 1-10.49 10.37 10.44 10.44 0 0 1 10.49-10.37Z"/><path class="cls-3" d="m288 332.43 212.9 1.37-1.64 251.2-212.9-1.36ZM527.13 334l-.06 9.86L710.16 345l.07-9.86ZM526.87 374.79l-.06 9.85 183.09 1.17.1-9.81ZM526.61 415.59l-.06 9.85 146.87.94.07-9.85ZM526.35 456.39l-.07 9.86 183.1 1.16.06-9.85ZM526.09 497.19 526 507l183.1 1.17.06-9.85ZM525.83 538v9.86l102.88.65.07-9.85ZM286.19 610.29l-.07 9.85 373.27 2.39.07-9.86ZM285.93 651.09l-.07 9.85 373.27 2.39.07-9.86ZM285.67 691.89l-.07 9.86 299.4 1.91.07-9.86ZM285.4 732.69l-.06 9.86 373.27 2.38.06-9.85ZM285.14 773.49l-.06 9.86 373.27 2.39.06-9.86ZM526.87 374.78Z"/><path class="cls-2" d="M264.8 244.16h410v30.4h-410ZM683 247.3h39.74v24.12H683Z"/><path d="M526.55 421.06ZM526.55 421.06ZM572.05 446.94Z"/><path class="cls-4" d="M452.75 272.75Z"/><path class="cls-5" d="M387.86 356.38 383.5 436l-71.74-32.58a52.6 52.6 0 0 1 76.1-47Z"/><path d="M416.93 403.42a52.1 52.1 0 0 1-3.84 19.72l-50.63 11.36 1.88-31.08 23.51-47a52.56 52.56 0 0 1 29.08 47Z" style="fill:#f95428"/><path class="cls-7" d="M413.08 423.14a52.58 52.58 0 0 1-101.33-19.72h52.58Z"/><path class="cls-5" d="M440.46 466.38h36.21v100.07h-36.21Zm0 0h36.21v100.07h-36.21Zm0 0h36.21v100.07h-36.21Zm0 0h36.21v100.07h-36.21ZM374 497.85h36.21v68.6H374Zm0 0h36.21v68.6H374Zm0 0h36.21v68.6H374Zm0 0h36.21v68.6H374Z"/><path class="cls-7" d="M307.59 523.74h36.21v42.71h-36.21Zm0 0h36.21v42.71h-36.21Zm0 0h36.21v42.71h-36.21Zm0 0h36.21v42.71h-36.21Z"/><path class="cls-8" d="M736.6 419.61c-.84.23-1.27 1-1.28 2.34a16.17 16.17 0 0 0 .25 2.75c1.15 5.82 1.66 8.76 1.53 8.84a7.13 7.13 0 0 1-.79 4.14 7.68 7.68 0 0 1-5.72.5 22.84 22.84 0 0 1-4.57-2.06l-8.68-5.31a1.75 1.75 0 0 0-2.46.77c-.35.74-.11 1.61.72 2.6a13.71 13.71 0 0 0 1.62 1.63 72.78 72.78 0 0 1 6.09 5.15 7.65 7.65 0 0 1 2 3.22 220.14 220.14 0 0 1-20-13.15c-1.82-.93-3.2-.78-4.15.48q-1 1.77 1.82 4.54a40.46 40.46 0 0 0 3.11 2.86l11.24 9.3c1.79 1.57 2.59 2.43 2.38 2.6q-2.15-.48-8.42-4.9a42.38 42.38 0 0 1-6.87-6.36 6.19 6.19 0 0 0-1.33-.91 5.09 5.09 0 0 0-3.68-.28 1.56 1.56 0 0 0-1.09 2q.43 2.72 12.08 10.89-4.62-2.85-5.28-2.34c-.4.18-.33.89.21 2.11 0 .4.48 1.05 1.5 1.94a74 74 0 0 0 15.29 10.83 26.53 26.53 0 0 0 9.75 3.14q4.29.53 11.92-.93l5.77.58 1.74-16.28c-.29-1.27-.72-3-1.29-5.09a43.68 43.68 0 0 0-2.28-6.66 68 68 0 0 0-3.88-6.89 20.38 20.38 0 0 1-1.08-2.33 26.83 26.83 0 0 1-1-2.91c-.24-.83-.53-2.19-.87-4.09a3.73 3.73 0 0 0-.32-.88 4.34 4.34 0 0 0-4-1.88"/><path class="cls-2" d="m749.65 447.32-6 28.23 6.35 1.36h.11l6-28.19-6.44-1.37"/><path d="M836.6 226.58q-7.9.42-12.6 5.42-5.21 5.15-10 17.16-4.35 10.51-4.19 10.47a16.39 16.39 0 0 0-.9 4.84q-.32 4.61 4 19.68l65.35 21.53q6.26-21.87 6-32.68a51.37 51.37 0 0 0-6.13-23.76q-6.27-11.69-14.41-15.89-15.36-7.22-27-6.81" style="fill:#0e0400"/><path d="m885.17 331.21-66.62 46.13-25.65 78.75-42.43-8.57-6.92 35.75 40.52 12.5-18.21 150.61 11.55.19q-5.6 116.26-4 135.8a100.58 100.58 0 0 0 1.2 11.7 287.58 287.58 0 0 1 8.79 47.66q3.44 29.31 10 115.35-19.57 24.18-26.4 28.27.15 2.68-35.76 11.48-5.88 2.82-3 5.42 4.09 4.63 14.23 6.09l38.93.85q7.74 1.24 22.67-9.29 4.32 6 38.53-.92-1.42-41.55-4.81-34.66l-14.58-175q9.8-56.24 19.7-81.14 16.93 80.16 14.23 102.55 1.06 6.69 6.9 14.1l.75 33.86q1.14 48.69-2.4 115.45a56.2 56.2 0 0 1-2.9 12.11l-11.19 26.14c-1.26 4.74-1.53 8-.84 9.77q.15 12.48 39.3 2.51 7.5-2.76 9.36-5.51l6.07-16.57q4-12.06-5.23-27.58L907 946q2.61-62.44 2.87-92.44.92-46.78-4.85-113.12l10.47-104.9 43.73-13.11-19.22-69.7 31.84-41.36q-11.11-108.36-25-133.74-6.5-13.23-15.21-19.58-9.84-8.1-32.82-10.67l-13.29-15.72"/><path class="cls-2" d="m881.68 329.88-35.75 27.93-7.51-1.55-2.17 12.25q-19.47 39.11-24.43 53.49-10.44 27.19-14.47 62.86-3 23.34-5.69 73.59a29.26 29.26 0 0 0 3.11 3.91q6.24 7.36 17.67 7.62 10.32.69 41.93-5.48-15.25-38.25-19.37-60.85a160.27 160.27 0 0 1-2.39-49.93q2.67-23.78 14.1-48.82 10.13-23.28 39.15-70.11l.06-.23-4.22-4.68"/><path class="cls-4" d="m843.55 361.75-7.85 7.51-2.48 8.89a78.84 78.84 0 0 0-10.13 16.76q-8.37 18.48-16.7 46.95a357.25 357.25 0 0 0-10.34 46.3q-3.46 22.14-5.6 57.38l5.73 12.31 14.08-14.46 29.1-162 8.91-8.52-4.7-11.06"/><path class="cls-8" d="M848.37 253.33a39.39 39.39 0 0 0-5.83.48q-11.07 2.26-19.48 3.31a14.05 14.05 0 0 0-5.49 1.92q-5.43 3.6-5.81 18.52a66 66 0 0 0 1.55 15.35q.23 12 .86 17.2a34.63 34.63 0 0 0 2.41 10.29 26.3 26.3 0 0 0 1.74 3.34l4.9 7.19q6.4 11.85 6.83 11.69c1.57 2.1 4 2.91 7.33 2.43L839 357l7.42 1.35 35.24-25-.58-28.1q5.32-4.28 6.33-19.33.19-11.37-8.35-7.56a9.2 9.2 0 0 0-3.74 4.27q-1.67 3.35-2.18 12.24l-1.88.44q-3.78-25.78-8.38-33.55-4.2-8.56-14.53-8.49M890 593.14l-17.55-17.52-11.55 10.45a13.72 13.72 0 0 0-7.75 2q-3.07 1.8-10.23 9.1 7.27 12.32 14.55 15 6.63 3.09 25.49 1.29a9.4 9.4 0 0 0 1.4-4q.12-1.57-1.48-4.71l.51-1.7q.81-3.28 6.53-9.83"/><path class="cls-2" d="M901.09 590.49 877.77 571l-7.6 5.34 22 21.84 9-7.66"/><path d="M863.37 328.33q-7.93 9.8-12.42 12.47-4.46 3-13.66 4.19l1.54 11.85 7.41 1.64 21-15.4-3.87-14.75" style="fill:#ff4d00;fill-opacity:.11"/><path d="m1053 1014.79-4 2.59q-28.85 7.84-168.8 12.54-140.93 4.69-331.89 3.81-182.25-1.24-291.52-7.26-35-2-57.67-4.24l-19.12-2.36q-15.69-2.45-15.87-5.08 4.77-8.13 130.17-13.52t314.26-5.6q188.85.2 314.26 5.6t130.18 13.52" style="fill-opacity:.53"/></g></svg>