<svg id="Layer_1" data-name="Layer 1" xmlns="http://www.w3.org/2000/svg" viewBox="0 0 405.83 406.04"><defs><clipPath id="clip-path"><path class="cls-1" d="M-167.98-175.1h750v750h-750z"/></clipPath><clipPath id="clip-path-2"><path class="cls-1" d="M0 11.63h395.04v395.04H0z"/></clipPath><clipPath id="clip-path-3"><path class="cls-1" d="M240.99 198.65h19.88v21.26h-19.88z"/></clipPath><clipPath id="clip-path-4"><path class="cls-1" d="M212.12 202.71h46.07v29.51h-46.07z"/></clipPath><clipPath id="clip-path-5"><path class="cls-1" d="M208.76 49.25h.22v.21h-.22z"/></clipPath><clipPath id="clip-path-6"><path class="cls-1" d="M56.6 201.89h139.25v35.61H56.6z"/></clipPath><clipPath id="clip-path-7"><path class="cls-1" d="M56.37 201.64h.21v.22h-.21z"/></clipPath><clipPath id="clip-path-8"><path class="cls-1" d="M195.85 188.73H227v31.15h-31.15z"/></clipPath><clipPath id="clip-path-9"><path class="cls-1" d="M56.42 49.3h188.21v188.2H56.42V49.3z"/></clipPath><clipPath id="clip-path-10"><path class="cls-1" d="M193.8 186.68H227v33.2h-33.2z"/></clipPath><style>.cls-1{fill:none}.cls-6{fill:#278279}.cls-7{fill:#295148}.cls-9{opacity:.7}.cls-11{fill:#0d6954}.cls-12{fill:#0ba587}.cls-14{opacity:.3}</style></defs><g style="clip-path:url(#clip-path)"><path d="M582 575.53h-750v-750h750Z" style="fill:#f3ba0c"/><g style="clip-path:url(#clip-path-2)"><path d="M203.65 62.66a108 108 0 0 1 14 135.44 107.94 107.94 0 0 0-14-135.44q-2-2-4-3.81 2 1.84 4 3.81m178 299.42L250.82 231.31a7.35 7.35 0 0 0-1.47-8.28l-15-15a127.44 127.44 0 0 0-38.89-176.67 124.82 124.82 0 0 0-24.67-12.11A127.35 127.35 0 1 0 196.4 246l15 15a7.33 7.33 0 0 0 8.27 1.48l130.78 130.75 11.9 11.9 1.54 1.54.52-.52L395 375.52Z" style="fill:#ccc"/></g><path class="cls-6" d="m373.26 397.29.53-.53-2.06-1 1.53 1.54ZM391 352.7l-31.15 31.15 11.9 11.9 2.07 1 30.62-30.62L391 352.7Z"/><path class="cls-7" d="M260.2 221.93a7.07 7.07 0 0 1-1.47 2.13l-27.54 27.54a7.15 7.15 0 0 1-2.14 1.48l130.78 130.77L391 352.7 260.2 221.93Z"/><path class="cls-6" d="M260.2 221.93a7.11 7.11 0 0 0 .66-2.73l-2.67.72ZM205.77 236.6l15 15a7.34 7.34 0 0 0 8.28 1.48l-19.21-19.22a90.48 90.48 0 0 1-4.07 2.74"/><path class="cls-6" d="M258.72 224.06a6.93 6.93 0 0 0 1.48-2.13l-2-2-46.07 12.31c-.76.56-1.52 1.11-2.28 1.63l19.21 19.22a7.28 7.28 0 0 0 2.14-1.48l27.53-27.54ZM258.19 219.91l2.67-.71a7.28 7.28 0 0 0-2.14-5.55l-15-15q-1.31 2.06-2.74 4.06Z"/><g class="cls-9" style="clip-path:url(#clip-path-3)"><path class="cls-6" d="m258.19 219.91 2.67-.71a7.28 7.28 0 0 0-2.14-5.55l-15-15q-1.31 2.06-2.74 4.06Z"/></g><path class="cls-6" d="M226.76 219.64a129 129 0 0 1-14.63 12.59l46.07-12.31-17.2-17.21a125.67 125.67 0 0 1-14.23 16.93"/><g class="cls-9" style="clip-path:url(#clip-path-4)"><path class="cls-6" d="M226.76 219.64a129 129 0 0 1-14.63 12.59l46.07-12.31-17.2-17.21a125.67 125.67 0 0 1-14.23 16.93"/></g><path class="cls-11" d="M180.16 9.86 204.84 22a125.5 125.5 0 0 0-24.68-12.14"/><path class="cls-11" d="m207.06 231.09-11.21-11.21a108 108 0 0 1-135.43-14c-1.31-1.3-2.58-2.65-3.81-4l-.2-.22v.05A107.91 107.91 0 0 1 208.82 49.3a2.09 2.09 0 0 1 .22.2q2.05 1.85 4 3.8a108 108 0 0 1 14 135.44l11.21 11.21 3.4-3.4 2.11 2.11A127.47 127.47 0 0 0 204.85 22L180.17 9.86a127.35 127.35 0 1 0 25.61 226.73l-2.11-2.11 3.4-3.4Z"/><path class="cls-11" d="M227 188.73a108.67 108.67 0 0 1-31.15 31.15l11.21 11.21 31.15-31.15ZM209 233.05l-5.37 1.44 2.11 2.11q2.07-1.32 4.06-2.74ZM209.84 233.86c.76-.52 1.52-1.07 2.28-1.63l-3.09.82.81.81ZM207.06 231.09l-3.4 3.4ZM238.21 199.94l-31.15 31.15Z"/><path class="cls-11" d="m203.66 234.49 5.37-1.44-2-2Z"/><path class="cls-11" d="M226.76 219.64A126.41 126.41 0 0 0 241 202.71l-2.78-2.77-31.15 31.15 2 2 3.09-.82a129 129 0 0 0 14.63-12.59"/><path class="cls-12" d="M204.82 197.7a107.39 107.39 0 0 0 30.47-60.7c-16.64 12.61-54.5 37-98.58 37-59.42 0-107.6-44.36-107.6-44.36s26.45-24.36 64.33-37a137.25 137.25 0 0 1 43.27-7.38A137.28 137.28 0 0 1 180 92.61c25.53 8.52 45.86 22.35 56.41 30.46a107.55 107.55 0 0 0-27.6-73.77A107.91 107.91 0 0 0 56.42 201.69a107.89 107.89 0 0 0 148.4-4M56.6 201.89"/><path class="cls-11" d="M208.76 49.25h.05l.17.16-.22-.21"/><g class="cls-14" style="clip-path:url(#clip-path-5)"><path class="cls-12" d="M208.76 49.25h.05l.17.16-.22-.21"/></g><path class="cls-11" d="M60.41 205.9q-2-2-3.81-4 1.84 2 3.81 4a108 108 0 0 0 135.44 14 107.94 107.94 0 0 1-135.43-14"/><g class="cls-14" style="clip-path:url(#clip-path-6)"><path class="cls-12" d="M60.41 205.9q-2-2-3.81-4 1.84 2 3.81 4a108 108 0 0 0 135.44 14 107.94 107.94 0 0 1-135.43-14"/></g><path class="cls-11" d="m56.37 201.64.21.22-.15-.17-.06-.05"/><g class="cls-14" style="clip-path:url(#clip-path-7)"><path class="cls-12" d="m56.37 201.64.21.22-.15-.17-.06-.05"/></g><path class="cls-11" d="M227 188.73a108.67 108.67 0 0 1-31.15 31.15A108.67 108.67 0 0 0 227 188.73"/><g class="cls-14" style="clip-path:url(#clip-path-8)"><path class="cls-12" d="M227 188.73a108.67 108.67 0 0 1-31.15 31.15A108.67 108.67 0 0 0 227 188.73"/></g><path class="cls-12" d="m195.85 219.88-2-2 31.15-31.2 2.05 2A108 108 0 0 0 213 53.29q-2-2-4-3.81c0-.06-.11-.1-.17-.16a107.55 107.55 0 0 1 27.6 73.77c5.09 3.92 7.91 6.52 7.91 6.52s-3.24 3-9 7.37a107.9 107.9 0 0 1-178.92 64.7l.16.18c1.23 1.36 2.5 2.69 3.81 4a108 108 0 0 0 135.44 14"/><g class="cls-14" style="clip-path:url(#clip-path-9)"><path class="cls-12" d="m195.85 219.88-2-2 31.15-31.2 2.05 2A108 108 0 0 0 213 53.29q-2-2-4-3.81c0-.06-.11-.1-.17-.16a107.55 107.55 0 0 1 27.6 73.77c5.09 3.92 7.91 6.52 7.91 6.52s-3.24 3-9 7.37a107.9 107.9 0 0 1-178.92 64.7l.16.18c1.23 1.36 2.5 2.69 3.81 4a108 108 0 0 0 135.44 14"/></g><path class="cls-12" d="m193.8 217.83 2 2a108.67 108.67 0 0 0 31.2-31.1l-2.05-2Z"/><g class="cls-14" style="clip-path:url(#clip-path-10)"><path class="cls-12" d="m193.8 217.83 2 2a108.67 108.67 0 0 0 31.2-31.1l-2.05-2Z"/></g><path class="cls-7" d="M236.4 123.08c0 2-.11 4.11-.26 6.16.15.12.3.23.43.35l-.5.39c-13.42 10.73-53.18 39-99.36 39C90 169 49.8 140 36.85 129.59c8.7-7 29.72-22.44 56.67-31.72a47.25 47.25 0 0 1-.14-3.38c0-.62 0-1.26.05-1.87-37.87 12.61-64.32 37-64.32 37S77.28 174 136.71 174c44.07 0 81.93-24.38 98.57-37 5.8-4.39 9-7.37 9-7.37s-2.83-2.59-7.92-6.51"/><path class="cls-7" d="M180.05 94.49c0 1.14-.06 2.26-.14 3.38 26.58 9.16 47.31 24.21 56.24 31.37.15-2.05.22-4.11.26-6.17-10.55-8.07-30.87-21.94-56.41-30.46 0 .62.05 1.25.05 1.88"/><path d="M136.71 137.81a43.33 43.33 0 0 1-43.18-39.94c-26.95 9.27-48 24.69-56.67 31.72C49.8 140 90 169 136.71 169c46.19 0 85.95-28.25 99.37-39 0-.25 0-.49.07-.74-8.93-7.16-29.66-22.21-56.24-31.37a43.33 43.33 0 0 1-43.2 39.94" style="fill:#f9fbed"/><path class="cls-7" d="M156.27 111.53a6.75 6.75 0 1 1 6.75-6.75 6.75 6.75 0 0 1-6.75 6.75M180 92.62a137.17 137.17 0 0 0-43.28-7.39 137.32 137.32 0 0 0-43.28 7.39v1.88c0 1.13.06 2.26.15 3.37a43.32 43.32 0 0 0 86.37 0c.09-1.11.14-2.24.14-3.37 0-.63 0-1.27-.05-1.88"/><path d="M156.27 98a6.75 6.75 0 1 0 6.75 6.74 6.74 6.74 0 0 0-6.75-6.74" style="fill:#fff"/></g></svg>