<svg id="Layer_1" data-name="Layer 1" xmlns="http://www.w3.org/2000/svg" viewBox="0 0 430 430"><defs><style>.cls-1{fill:#fff}.cls-2{fill:#33b5aa}</style></defs><path class="cls-1" d="M0 0h432v432H0z"/><circle class="cls-2" cx="216" cy="216" r="212"/><rect class="cls-1" x="107.79" y="102.21" width="190.8" height="228.96" rx="17.22"/><path d="M252.14 262h28.72v83.4a2.4 2.4 0 0 1-2.4 2.4h-23.92a2.4 2.4 0 0 1-2.4-2.4V262Z" transform="rotate(45 266.495 304.926)" style="fill:#f0bd57"/><path style="fill:#decdc0" d="m219.92 351.49 27.74-7.43-20.3-20.31-7.44 27.74z"/><path d="M297.61 250.09h18.72a5 5 0 0 1 5 5v23.72h-28.72v-23.72a5 5 0 0 1 5-5Z" transform="rotate(45 306.962 264.448)" style="fill:#ef5543"/><rect x="219.07" y="346.09" width="3" height="9.52" rx=".94" transform="rotate(45 220.563 350.85)" style="fill:#6d6762"/><path d="m323.43 260.6-6.31-6.31-99.92 99.93.34.34a1 1 0 0 0 1.44 0l3.84-3.84 24.84-6.66-.08-.08a2.7 2.7 0 0 0 .59-.43l58.8-58.8 16.46-16.46a5.46 5.46 0 0 0 0-7.69Z" style="opacity:.2;fill:#6d6762"/><path class="cls-2" d="M276.84 146.86h-91.58a2.29 2.29 0 1 1 0-4.58h91.58a2.29 2.29 0 1 1 0 4.58ZM176.32 123.55a2.27 2.27 0 0 0-3.23 0l-31.91 31.9-15.09-15.09a2.29 2.29 0 0 0-3.24 3.23L139 159.78a2.2 2.2 0 0 0 .44.62 2.25 2.25 0 0 0 1.62.67h.18a2.25 2.25 0 0 0 1.62-.67 2 2 0 0 0 .43-.62l33-33a2.27 2.27 0 0 0 .03-3.23ZM176.32 173.54a2.27 2.27 0 0 0-3.23 0l-31.91 31.9-15.09-15.1a2.29 2.29 0 0 0-3.24 3.24L139 209.77a2.2 2.2 0 0 0 .44.62 2.25 2.25 0 0 0 1.62.67h.18a2.25 2.25 0 0 0 1.62-.67 2 2 0 0 0 .43-.62l33-33a2.27 2.27 0 0 0 .03-3.23ZM176.32 223.14a2.29 2.29 0 0 0-3.23 0l-31.91 31.91L126.09 240a2.29 2.29 0 0 0-3.24 3.24L139 259.38a2.35 2.35 0 0 0 .44.62 2.25 2.25 0 0 0 1.62.67h.18a2.24 2.24 0 0 0 2-1.29l33-33a2.28 2.28 0 0 0 .08-3.24ZM276.84 197.44h-91.58a2.29 2.29 0 0 1 0-4.58h91.58a2.29 2.29 0 1 1 0 4.58ZM276.84 248h-91.58a2.29 2.29 0 1 1 0-4.58h91.58a2.29 2.29 0 1 1 0 4.58Z"/></svg>